<?xml version="1.0" encoding="utf-8"?>
<!-- Generator: Adobe Illustrator 18.1.1, SVG Export Plug-In . SVG Version: 6.00 Build 0)  -->
<svg version="1.1" id="Layer_1" xmlns="http://www.w3.org/2000/svg" xmlns:xlink="http://www.w3.org/1999/xlink" x="0px" y="0px"
	 viewBox="481.5 282.8 45 45" enable-background="new 481.5 282.8 45 45" xml:space="preserve">
<path fill="#333333" d="M526.5,301.1c0-0.8-0.6-1.4-1.4-1.4H511c-0.8,0-1.4-0.6-1.4-1.4v-14.1c0-0.8-0.6-1.4-1.4-1.4h-8.4
	c-0.8,0-1.4,0.6-1.4,1.4v14.1c0,0.8-0.6,1.4-1.4,1.4h-14.1c-0.8,0-1.4,0.6-1.4,1.4v8.4c0,0.8,0.6,1.4,1.4,1.4H497
	c0.8,0,1.4,0.6,1.4,1.4v14.1c0,0.8,0.6,1.4,1.4,1.4h8.4c0.8,0,1.4-0.6,1.4-1.4v-14.1c0-0.8,0.6-1.4,1.4-1.4h14.1
	c0.8,0,1.4-0.6,1.4-1.4V301.1z"/>
</svg>
